HIERARCHY
ROOT Hips
{
	OFFSET 0.000000 0.000000 0.000000
	CHANNELS 6 Xposition Yposition Zposition Zrotation Yrotation Xrotation 
	JOINT LHipJoint
	{
		OFFSET 0.000000 0.000000 0.000000
		CHANNELS 3 Zrotation Yrotation Xrotation
		JOINT LeftUpLeg
		{
			OFFSET 1.363060 -1.794630 0.839290
			CHANNELS 3 Zrotation Yrotation Xrotation
			JOINT LeftLeg
			{
				OFFSET 2.448110 -6.726130 0.000000
				CHANNELS 3 Zrotation Yrotation Xrotation
				JOINT LeftFoot
				{
					OFFSET 2.562200 -7.039590 0.000000
					CHANNELS 3 Zrotation Yrotation Xrotation
					JOINT LeftToeBase
					{
						OFFSET 0.157640 -0.433110 2.322550
						CHANNELS 3 Zrotation Yrotation Xrotation
						End Site
						{
							OFFSET 0.000000 0.000000 0.000000
						}
					}
				}
			}
		}
	}
	JOINT RHipJoint
	{
		OFFSET 0.000000 0.000000 0.000000
		CHANNELS 3 Zrotation Yrotation Xrotation
		JOINT RightUpLeg
		{
			OFFSET -1.305520 -1.794630 0.839290
			CHANNELS 3 Zrotation Yrotation Xrotation
			JOINT RightLeg
			{
				OFFSET -2.542530 -6.985550 0.000000
				CHANNELS 3 Zrotation Yrotation Xrotation
				JOINT RightFoot
				{
					OFFSET -2.568260 -7.056230 0.000000
					CHANNELS 3 Zrotation Yrotation Xrotation
					JOINT RightToeBase
					{
						OFFSET -0.164730 -0.452590 2.363150
						CHANNELS 3 Zrotation Yrotation Xrotation
						End Site
						{
							OFFSET 0.000000 0.000000 0.000000
						}
					}
				}
			}
		}
	}
	JOINT LowerBack
	{
		OFFSET 0.000000 0.000000 0.000000
		CHANNELS 3 Zrotation Yrotation Xrotation
		JOINT Spine
		{
			OFFSET 0.028270 2.035590 -0.193380
			CHANNELS 3 Zrotation Yrotation Xrotation
			JOINT Spine1
			{
				OFFSET 0.056720 2.048850 -0.042750
				CHANNELS 3 Zrotation Yrotation Xrotation
				JOINT Neck
				{
					OFFSET 0.000000 0.000000 0.000000
					CHANNELS 3 Zrotation Yrotation Xrotation
					JOINT Neck1
					{
						OFFSET -0.054170 1.746240 0.172020
						CHANNELS 3 Zrotation Yrotation Xrotation
						JOINT Head
						{
							OFFSET 0.104070 1.761360 -0.123970
							CHANNELS 3 Zrotation Yrotation Xrotation
							End Site
							{
								OFFSET 0.000000 0.000000 0.000000
							}
						}
					}
				}
				JOINT LeftShoulder
				{
					OFFSET 0.000000 0.000000 0.000000
					CHANNELS 3 Zrotation Yrotation Xrotation
					JOINT LeftArm
					{
						OFFSET 3.362410 1.200890 -0.311210
						CHANNELS 3 Zrotation Yrotation Xrotation
						JOINT LeftForeArm
						{
							OFFSET 4.983000 -0.000000 -0.000000
							CHANNELS 3 Zrotation Yrotation Xrotation
							JOINT LeftHand
							{
								OFFSET 3.483560 -0.000000 -0.000000
								CHANNELS 3 Zrotation Yrotation Xrotation
								JOINT LeftFingerBase
								{
									OFFSET 0.000000 0.000000 0.000000
									CHANNELS 3 Zrotation Yrotation Xrotation
									JOINT LeftHandIndex1
									{
										OFFSET 0.715260 -0.000000 -0.000000
										CHANNELS 3 Zrotation Yrotation Xrotation
										End Site
										{
											OFFSET 0.000000 0.000000 0.000000
										}
									}
								}
								JOINT LThumb
								{
									OFFSET 0.000000 0.000000 0.000000
									CHANNELS 3 Zrotation Yrotation Xrotation
									End Site
									{
										OFFSET 0.000000 0.000000 0.000000
									}
								}
							}
						}
					}
				}
				JOINT RightShoulder
				{
					OFFSET 0.000000 0.000000 0.000000
					CHANNELS 3 Zrotation Yrotation Xrotation
					JOINT RightArm
					{
						OFFSET -3.136600 1.374050 -0.404650
						CHANNELS 3 Zrotation Yrotation Xrotation
						JOINT RightForeArm
						{
							OFFSET -5.241900 -0.000000 -0.000000
							CHANNELS 3 Zrotation Yrotation Xrotation
							JOINT RightHand
							{
								OFFSET -3.444170 -0.000000 -0.000000
								CHANNELS 3 Zrotation Yrotation Xrotation
								JOINT RightFingerBase
								{
									OFFSET 0.000000 0.000000 0.000000
									CHANNELS 3 Zrotation Yrotation Xrotation
									JOINT RightHandIndex1
									{
										OFFSET -0.622530 -0.000000 -0.000000
										CHANNELS 3 Zrotation Yrotation Xrotation
										End Site
										{
											OFFSET 0.000000 0.000000 0.000000
										}
									}
								}
								JOINT RThumb
								{
									OFFSET 0.000000 0.000000 0.000000
									CHANNELS 3 Zrotation Yrotation Xrotation
									End Site
									{
										OFFSET 0.000000 0.000000 0.000000
									}
								}
							}
						}
					}
				}
			}
		}
	}
}
MOTION
Frames: 6
Frame Time: 0.008333
-2.130893 16.943063 -2.217097 175.699172 85.425009 -176.079220 -11.261062 5.402452 0.380876 -9.202101 8.519104 0.322097 -1.375498 2.355539 30.489689 -0.037067 -7.110049 10.065749 -1.909700 -0.000000 -81.699200 9.220303 -0.239787 3.403985 5.763681 4.940622 -31.036384 2.265538 -0.700752 16.819596 0.806652 4.685863 6.564814 0.652400 -0.000000 -52.001001 8.170852 -6.220019 -5.103584 1.547390 -6.939582 -3.749754 -5.241461 -6.943276 0.929702 10.504705 -20.686629 -10.999856 -2.651401 -0.167484 -0.796689 0.000000 0.000000 0.000000 8.191930 1.926453 -0.534052 -38.258176 -9.011488 1.967455 -0.679870 -87.099411 -0.084607 10.769313 -1.284311 -0.167725 -0.146656 0.487224 -0.000000 0.000000 0.000000 0.000000 0.000000 0.000000 0.000000 15.190124 -19.625534 1.748729 59.581008 -25.261734 -11.973366 3.938215 30.276258 -0.005854 -1.352679 -2.689071 0.035605 0.144054 0.012518 -0.000000 0.000000 0.000000 0.000000 0.000000 0.000000 0.000000 
-1.982382 16.921518 -2.237431 -179.923148 85.259455 -171.755377 -11.583757 5.486742 0.377365 -8.319058 9.149164 -0.979030 -1.184144 2.512544 33.069708 0.057633 -7.353071 11.355711 -2.184500 0.000000 -83.055801 9.079944 -0.275509 3.216082 6.590779 4.270446 -31.457026 2.266362 -0.828055 18.791637 0.790117 4.695511 5.643636 0.602600 0.000000 -51.767101 8.492077 -6.048485 -5.001883 1.571275 -6.793335 -3.764872 -5.378038 -6.794004 0.814509 10.680949 -20.291222 -10.980469 -2.803220 -0.181185 -0.794500 0.000000 0.000000 0.000000 7.804427 1.827306 -0.494170 -39.810153 -8.636986 2.236205 -0.696881 -86.526300 -0.084043 10.937232 -1.346072 -0.175516 -0.151405 0.479399 -0.000000 0.000000 0.000000 0.000000 0.000000 0.000000 0.000000 15.811041 -19.136150 1.752389 59.568802 -24.410042 -10.950908 3.907458 30.261931 -0.005699 -1.693200 -2.713571 0.044007 0.141331 0.012836 -0.000000 0.000000 0.000000 0.000000 0.000000 0.000000 0.000000 
-1.840421 16.897048 -2.258038 -175.987134 85.019772 -167.894112 -11.911358 5.525829 0.333018 -7.436901 9.852218 -2.356534 -0.982387 2.663554 35.801839 0.169558 -7.483558 12.716737 -2.454001 0.000000 -83.421800 8.924633 -0.317322 3.020003 7.389468 3.627699 -31.899471 2.261766 -0.963981 20.889035 0.767509 4.731162 4.492353 0.549700 -0.000001 -51.398300 8.782975 -5.884326 -4.832443 1.584329 -6.650477 -3.769304 -5.526581 -6.649317 0.679889 10.876546 -19.809850 -10.949379 -2.964136 -0.195574 -0.790490 0.000000 0.000000 0.000000 7.428021 1.701724 -0.441519 -41.398737 -8.266669 2.462788 -0.714690 -85.842439 -0.084080 11.196944 -1.399397 -0.184114 -0.157262 0.471116 -0.000000 0.000000 0.000000 0.000000 0.000000 0.000000 0.000000 16.475023 -18.565928 1.765349 59.592945 -23.490962 -9.813282 3.873788 30.223645 -0.005510 -2.029068 -2.729955 0.052208 0.138159 0.012870 -0.000000 0.000000 0.000000 0.000000 0.000000 0.000000 0.000000 
-1.705255 16.869351 -2.278688 -172.445331 84.707245 -164.453270 -12.234320 5.518347 0.244073 -6.551275 10.616663 -3.787415 -0.774928 2.810593 38.663683 0.298944 -7.426594 14.094318 -2.679900 -0.000000 -82.700900 8.761107 -0.363573 2.818207 8.159360 3.033746 -32.313386 2.253980 -1.102510 23.031633 0.737863 4.777368 3.176148 0.492300 -0.000000 -50.938600 9.054135 -5.729326 -4.593568 1.589212 -6.513033 -3.763415 -5.685410 -6.511343 0.524991 11.083654 -19.240669 -10.902796 -3.132318 -0.210486 -0.783702 0.000000 0.000000 0.000000 7.058059 1.543348 -0.374248 -43.011340 -7.887012 2.638144 -0.734064 -85.053317 -0.084686 11.549365 -1.448470 -0.194119 -0.163901 0.462394 -0.000000 0.000000 0.000000 0.000000 0.000000 0.000000 0.000000 17.166800 -17.914959 1.789548 59.656749 -22.496821 -8.582365 3.837322 30.155862 -0.005320 -2.350563 -2.745839 0.060108 0.134561 0.012500 -0.000000 0.000000 0.000000 0.000000 0.000000 0.000000 0.000000 
-1.576867 16.838342 -2.299069 -169.309478 84.320222 -161.450833 -12.542241 5.464857 0.110106 -5.665792 11.419927 -5.243146 -0.567164 2.956930 41.626667 0.443816 -7.100417 15.406278 -2.809200 0.000000 -80.844200 8.597056 -0.412610 2.609876 8.899520 2.489636 -32.654790 2.244838 -1.238633 25.148594 0.700984 4.822990 1.758531 0.430900 0.000000 -50.424300 9.308359 -5.585705 -4.284455 1.587154 -6.382887 -3.747012 -5.852353 -6.382032 0.351258 11.296571 -18.588332 -10.838773 -3.305538 -0.225683 -0.773691 0.000000 0.000000 0.000000 6.689985 1.353081 -0.290847 -44.636724 -7.498771 2.756473 -0.755269 -84.154375 -0.085756 11.986559 -1.499184 -0.205939 -0.170859 0.453240 -0.000000 0.000000 0.000000 0.000000 0.000000 0.000000 0.000000 17.874847 -17.191093 1.825383 59.758111 -21.414016 -7.274639 3.798216 30.046259 -0.005148 -2.653322 -2.763633 0.067707 0.130598 0.011620 -0.000000 0.000000 0.000000 0.000000 0.000000 0.000000 0.000000 
-1.455198 16.804026 -2.318359 -166.692853 83.856929 -159.010307 -12.818635 5.368544 -0.067244 -4.802751 12.229715 -6.684054 -0.363239 3.106418 44.652494 0.601376 -6.419903 16.564294 -2.781100 -0.000000 -77.910500 8.447213 -0.460522 2.389321 9.595344 1.969397 -32.891032 2.234140 -1.370010 27.192803 0.657887 4.868485 0.291614 0.368400 -0.000000 -49.875800 9.531572 -5.457338 -3.901565 1.575874 -6.262252 -3.718623 -6.025580 -6.263585 0.161418 11.514883 -17.865651 -10.756570 -3.481587 -0.240897 -0.760326 0.000000 0.000000 0.000000 6.326163 1.129315 -0.190838 -46.265851 -7.104593 2.811547 -0.777533 -83.136350 -0.087102 12.491424 -1.557696 -0.220080 -0.177534 0.443597 -0.000000 0.000000 0.000000 0.000000 0.000000 0.000000 0.000000 18.596194 -16.412245 1.872051 59.890163 -20.221709 -5.890246 3.756193 29.877071 -0.005000 -2.941842 -2.779409 0.075004 0.126375 0.010155 -0.000000 0.000000 0.000000 0.000000 0.000000 0.000000 0.000000 
